<?xml version="1.0" encoding="UTF-8"?>
<svg width="1341px" height="393px" viewBox="0 0 1341 393" version="1.1" xmlns="http://www.w3.org/2000/svg" xmlns:xlink="http://www.w3.org/1999/xlink">
    <title>logo_andela-blue</title>
    <defs>
        <polygon id="path-1" points="0.06 0.172 337.246968 0.172 337.246968 198.034968 0.06 198.034968"></polygon>
    </defs>
    <g id="Page-1" stroke="none" stroke-width="1" fill="none" fill-rule="evenodd">
        <g id="logo_andela-blue">
            <path d="M744.408,150.861 C725.265,150.861 709.404,158.203 700.538,171.088 L700.538,158.542 C700.538,156.165 698.876,154.495 696.502,154.495 L675.331,154.495 C672.952,154.495 671.282,156.165 671.282,158.542 L671.282,298.255 C671.282,300.651 672.952,302.311 675.331,302.311 L696.502,302.311 C698.876,302.311 700.538,300.651 700.538,298.255 L700.538,216.059 C700.538,193.36 714.842,178.127 736.152,178.127 C758.803,178.127 770.764,191.814 770.764,217.699 L770.764,298.255 C770.764,300.651 772.439,302.311 774.805,302.311 L795.966,302.311 C798.362,302.311 800.024,300.651 800.024,298.255 L800.024,211.11 C800.024,173.947 778.717,150.861 744.408,150.861" id="Fill-1" fill="#3359DF"></path>
            <path d="M1008.23,200.749 C1013.37,185.321 1027.86,176.474 1045.36,176.474 C1062.86,176.474 1075.87,185.321 1081,200.749 C1082.58,205.457 1083.28,210.902 1083.28,218.347 C1083.28,219.271 1081.48,219.594 1080.56,219.594 L1006.48,219.594 C1005.57,219.594 1005.24,219.271 1005.24,218.347 C1005.24,210.902 1006.66,205.457 1008.23,200.749 Z M1043.87,150.522 C1012.86,150.522 989.946,166.245 981.033,193.655 C977.572,203.685 975.652,213.939 975.652,231.741 C975.652,241.749 977.224,251.157 979.937,260.604 L980.236,261.519 C988.874,289.155 1013.41,305.614 1045.53,305.614 C1071.39,305.614 1094.14,295.626 1107.93,278.24 C1109.55,276.191 1109.38,274.076 1107.5,272.579 L1093.92,260.311 C1092.04,258.816 1089.97,259.027 1087.93,261.078 C1081.1,268.948 1068.6,278.335 1047.83,278.335 C1028.21,278.335 1013.17,269.865 1007.43,252.142 C1006.4,248.962 1005.92,244.976 1005.92,244.473 C1005.92,243.553 1006.24,243.236 1007.17,243.236 L1107.34,243.236 C1110,243.236 1111.71,241.642 1111.71,239.17 C1111.71,214.056 1109.89,203.463 1106.72,193.655 C1097.69,166.245 1074.78,150.522 1043.87,150.522 L1043.87,150.522 Z" id="Fill-2" fill="#3359DF"></path>
            <path d="M1183.06,276.354 L1176.77,276.354 C1165.76,276.354 1161.66,271.806 1161.66,259.578 L1161.66,91.767 C1161.66,89.38 1161.66,87.663 1161.57,87.7100182 L1136.46,87.7100182 C1134.08,87.7100182 1132.4,89.38 1132.4,91.767 L1132.4,261.23 C1132.4,290.949 1144.21,303.622 1171.82,303.622 L1183.06,303.622 C1185.44,303.622 1187.11,301.96 1187.11,299.574 L1187.11,280.402 C1187.11,278.019 1185.44,276.354 1183.06,276.354" id="Fill-3" fill="#3359DF"></path>
            <path d="M1261.03,280.304 C1240.2,280.304 1228.73,271.777 1228.73,256.275 C1228.73,238.724 1240.26,231.241 1267.31,231.241 L1299.04,231.241 C1299.95,231.241 1300.27,231.565 1300.27,232.485 L1300.27,249.995 C1300.27,268.977 1285.61,280.304 1261.03,280.304 Z M1336.46,280.382 C1330.57,280.382 1328.96,278.722 1328.57,271.648 L1328.57,205.133 C1328.57,165.833 1310.93,149.574 1265.65,149.574 C1243.63,149.574 1224.33,156.084 1211.26,166.267 C1209.62,167.889 1209.37,169.6 1210.47,171.81 L1219.4,187.015 C1220.56,188.933 1223.16,189.136 1225.11,187.576 C1235.86,179.892 1247.55,175.529 1263.02,175.529 C1293.95,175.529 1300.18,187.437 1300.27,206.387 C1300.26,207.273 1299.95,207.594 1299.04,207.594 L1263.02,207.594 C1222.08,207.594 1200.46,224.778 1200.46,257.27 C1200.46,287.076 1221.13,305.614 1254.42,305.614 C1275.09,305.614 1291.61,298.793 1300.36,286.818 C1301.13,299.071 1304.91,303.526 1320.62,303.526 L1340.01,303.653 L1340.01,283.938 C1340.01,281.786 1338.58,280.382 1336.46,280.382 L1336.46,280.382 Z" id="Fill-4" fill="#3359DF"></path>
            <path d="M926.851,240.67 C926.851,262.735 909.286,280.624 887.601,280.624 C865.915,280.624 848.348,265.057 848.348,236.967 L848.348,232.506 C848.33,231.741 848.317,230.95 848.317,230.128 C848.317,228.999 848.33,227.947 848.348,226.93 L848.348,220.182 C848.348,192.4 865.915,174.997 887.601,174.997 C909.286,174.997 926.851,192.894 926.851,214.966 L926.851,240.67 Z M930.477,87.1689599 C928.071,87.1689599 926.409,88.84 926.409,91.219 L926.409,164.074 C919.124,155.427 902.341,150.369 883.352,150.369 C855.184,150.369 832.924,165.085 824.615,190.161 C820.704,202.051 818.493,213.768 819.245,229.262 C819.794,240.329 820.492,254.791 825.184,267.113 C834.913,292.66 854.991,305.614 881.942,305.614 C903.256,305.614 919.598,300.084 926.409,290.72 L926.409,297.914 C926.409,300.311 928.071,301.971 930.477,301.971 L951.631,301.971 C954.005,301.971 955.692,300.311 955.692,297.914 L955.692,91.219 C955.692,88.84 955.692,87.101 955.692,87.1689599 L930.477,87.1689599 L930.477,87.1689599 Z" id="Fill-5" fill="#3359DF"></path>
            <path d="M561.549,224.701 L529.134,224.701 L561.493,146.131 L561.493,146.186 L561.523,146.139 L561.549,146.186 L561.549,146.131 L593.945,224.701 L561.549,224.701 Z M652.034,294.055 L576.731,107.685 C575.06,102.842 570.725,94.588 561.493,94.588 C552.278,94.588 547.971,102.842 546.287,107.685 L471.008,294.055 C471.008,294.142 468.113,300.359 468.68,301.153 C469.251,301.935 470.217,302.357 471.443,302.357 L494.539,302.357 C496.827,302.357 498.402,301.172 499.52,298.554 L517.988,253.247 L604.918,253.247 L623.522,298.554 C624.619,301.172 626.195,302.357 628.504,302.357 L651.6,302.357 C652.806,302.357 653.792,301.935 654.35,301.153 C654.93,300.359 652.034,294.142 652.034,294.055 L652.034,294.055 Z" id="Fill-6" fill="#3359DF"></path>
            <path d="M219.541,78.195 L195.61,48.764 L171.675,78.195 L139.385,60.661 C139.385,60.661 178.072,14.891 182.047,10.198 C185.96,5.573 189.603,0.963 195.552,0.81 L195.552,0.788 C195.57,0.788 195.61,0.798 195.61,0.798 C195.628,0.798 195.65,0.788 195.686,0.788 L195.686,0.81 C201.627,0.963 205.256,5.573 209.173,10.198 C213.148,14.891 251.832,60.661 251.832,60.661 L219.541,78.195" id="Fill-7" fill="#3359DF"></path>
            <path d="M139.385,332.133 C139.385,332.133 178.078,377.907 182.055,382.62 C185.96,387.215 189.589,391.825 195.54,391.99 L195.54,392 C195.558,391.99 195.588,391.99 195.606,391.99 C195.606,391.99 195.646,391.99 195.676,392 L195.676,391.99 C201.617,391.825 205.256,387.215 209.177,382.62 C213.138,377.907 251.832,332.133 251.832,332.133 L219.541,314.604 L195.606,344.043 L171.663,314.604 L139.385,332.133" id="Fill-8" fill="#3359DF"></path>
            <path d="M128.952,95.891 L91.217,92.003 L95.104,129.739 L59.873,140.172 C59.873,140.172 54.864,80.453 54.356,74.322 C53.854,68.283 53.171,62.451 57.267,58.133 L57.254,58.119 C57.267,58.107 57.3,58.086 57.3,58.086 C57.314,58.075 57.322,58.054 57.346,58.028 L57.362,58.038 C61.672,53.95 67.497,54.639 73.535,55.143 C79.667,55.649 139.385,60.661 139.385,60.661 L128.952,95.891" id="Fill-9" fill="#3359DF"></path>
            <g id="Group-13" transform="translate(0.000000, 140.000000)">
                <mask id="mask-2" fill="white">
                    <use xlink:href="#path-1"></use>
                </mask>
                <g id="Clip-11"></g>
                <path d="M251.832,192.133 C251.832,192.133 311.561,197.142 317.705,197.66 C323.716,198.149 329.54,198.843 333.866,194.75 L333.872,194.759 C333.88,194.735 333.901,194.717 333.912,194.701 C333.912,194.701 333.942,194.673 333.969,194.658 L333.964,194.655 C338.044,190.337 337.359,184.505 336.885,178.48 C336.352,172.35 331.339,112.616 331.339,112.616 L296.115,123.055 L300.007,160.801 L262.259,156.912 L251.832,192.133" id="Fill-10" fill="#3359DF" mask="url(#mask-2)"></path>
                <path d="M77.407,32.456 L47.974,56.391 L77.406,80.331 L59.873,112.616 C59.873,112.616 14.101,73.93 9.409,69.954 C4.783,66.037 0.177,62.398 0.021,56.448 L0.001,56.448 C0.001,56.43 0.009,56.391 0.009,56.391 C0.01,56.372 0.001,56.351 0,56.314 L0.021,56.314 C0.177,50.374 4.783,46.744 9.407,42.827 C14.101,38.853 59.873,0.172 59.873,0.172 L77.407,32.456" id="Fill-12" fill="#3359DF" mask="url(#mask-2)"></path>
            </g>
            <path d="M331.339,252.616 C331.339,252.616 377.121,213.922 381.832,209.943 C386.427,206.039 391.036,202.411 391.203,196.46 L391.211,196.46 C391.203,196.442 391.203,196.408 391.203,196.394 C391.203,196.394 391.203,196.354 391.211,196.325 L391.203,196.321 C391.036,190.384 386.426,186.744 381.832,182.821 C377.121,178.86 331.339,140.172 331.339,140.172 L313.814,172.459 L343.252,196.394 L313.814,220.341 L331.339,252.616" id="Fill-14" fill="#3359DF"></path>
            <path d="M95.101,263.047 L91.213,300.785 L128.948,296.899 L139.385,332.133 C139.385,332.133 79.663,337.142 73.534,337.646 C67.495,338.149 61.661,338.83 57.345,334.735 L57.332,334.75 C57.318,334.735 57.296,334.701 57.296,334.701 C57.285,334.688 57.263,334.681 57.237,334.655 L57.25,334.64 C53.16,330.328 53.851,324.505 54.354,318.468 C54.86,312.34 59.873,252.616 59.873,252.616 L95.101,263.047" id="Fill-15" fill="#3359DF"></path>
            <path d="M331.339,140.172 C331.339,140.172 336.352,80.442 336.87,74.297 C337.359,68.286 338.052,62.462 333.962,58.137 L333.968,58.129 C333.95,58.123 333.928,58.1 333.916,58.09 C333.916,58.09 333.888,58.06 333.871,58.036 L333.866,58.038 C329.546,53.958 323.716,54.647 317.692,55.117 C311.561,55.649 251.832,60.661 251.832,60.661 L262.269,95.887 L300.009,91.996 L296.124,129.742 L331.339,140.172" id="Fill-16" fill="#3359DF"></path>
        </g>
    </g>
</svg>